<svg id="Layer_1" data-name="Layer 1" xmlns="http://www.w3.org/2000/svg" viewBox="0 0 41.92 168.56">
	<defs>
		<style>.cls-1 {
			fill: #c9cac9;
		}

		.cls-2 {
			fill: #373737;
		}</style>
	</defs>
	<title>likelihood_arrow</title>
	<polygon class="cls-1" points="31.81 22.8 41.92 22.8 24.58 0 7.24 22.8 17.36 22.8 24.58 168.56 31.81 22.8"/>
	<path class="cls-2" d="M290.07,502.84H278.65V501h9.82v-4.84h1.6v6.7Z" transform="translate(-277.91 -335.79)"/>
	<path class="cls-2"
		  d="M279.14,494.47a1,1,0,0,1-.76-0.27,1.05,1.05,0,0,1-.27-0.77,1,1,0,0,1,.27-0.75,1,1,0,0,1,.76-0.27,1,1,0,0,1,.74.27,1,1,0,0,1,.27.75,1,1,0,0,1-.27.77A1,1,0,0,1,279.14,494.47Zm10.93-1.95v1.84h-8.64v-1.84h8.64Z"
		  transform="translate(-277.91 -335.79)"/>
	<path class="cls-2"
		  d="M285.51,488.13l-1.3-1-2.78-2.61v-2.12l3.71,3.48,4.93-3.7v2.16l-3.79,2.77,0.83,1h3v1.82H277.91v-1.82h5.93l1.66,0.09v0Z"
		  transform="translate(-277.91 -335.79)"/>
	<path class="cls-2"
		  d="M290.23,477a4.18,4.18,0,0,1-1.18,3.15,4.46,4.46,0,0,1-3.24,1.14,4.9,4.9,0,0,1-3.33-1.05,3.64,3.64,0,0,1-1.21-2.9,3.56,3.56,0,0,1,1-2.7,4,4,0,0,1,2.86-1h1v5.76a2.84,2.84,0,0,0,1.93-.68,2.37,2.37,0,0,0,.68-1.8,6.64,6.64,0,0,0-.14-1.43,7.5,7.5,0,0,0-.48-1.42h1.49a5.65,5.65,0,0,1,.45,1.36A8.3,8.3,0,0,1,290.23,477Zm-7.56.34a1.84,1.84,0,0,0,.55,1.4,2.64,2.64,0,0,0,1.62.63v-3.92a2.39,2.39,0,0,0-1.62.52A1.76,1.76,0,0,0,282.66,477.32Z"
		  transform="translate(-277.91 -335.79)"/>
	<path class="cls-2" d="M290.07,469.7v1.84H277.91V469.7h12.16Z" transform="translate(-277.91 -335.79)"/>
	<path class="cls-2"
		  d="M279.14,467.18a1,1,0,0,1-.76-0.27,1.05,1.05,0,0,1-.27-0.77,1,1,0,0,1,.27-0.75,1,1,0,0,1,.76-0.27,1,1,0,0,1,.74.27,1,1,0,0,1,.27.75,1,1,0,0,1-.27.77A1,1,0,0,1,279.14,467.18Zm10.93-1.95v1.84h-8.64v-1.84h8.64Z"
		  transform="translate(-277.91 -335.79)"/>
	<path class="cls-2"
		  d="M290.07,455v1.84h-5.31a2.32,2.32,0,0,0-1.49.4,1.56,1.56,0,0,0-.49,1.28,2,2,0,0,0,.69,1.7,3.81,3.81,0,0,0,2.32.54h4.29v1.84H277.91v-1.84H281a14.4,14.4,0,0,1,1.59.09v-0.12a2.55,2.55,0,0,1-1-1,3.36,3.36,0,0,1-.34-1.56q0-3.14,3.16-3.14h5.63Z"
		  transform="translate(-277.91 -335.79)"/>
	<path class="cls-2"
		  d="M285.73,444.79a4.72,4.72,0,0,1,3.3,1.09,3.89,3.89,0,0,1,1.19,3,4.15,4.15,0,0,1-.55,2.14,3.6,3.6,0,0,1-1.57,1.43,5.35,5.35,0,0,1-2.37.5,4.68,4.68,0,0,1-3.28-1.08,3.91,3.91,0,0,1-1.18-3,3.81,3.81,0,0,1,1.21-3A4.66,4.66,0,0,1,285.73,444.79Zm0,6.29q3,0,3-2.21t-3-2.19q-3,0-3,2.2a1.88,1.88,0,0,0,.77,1.68A3.89,3.89,0,0,0,285.73,451.08Z"
		  transform="translate(-277.91 -335.79)"/>
	<path class="cls-2"
		  d="M285.73,435a4.72,4.72,0,0,1,3.3,1.09,3.89,3.89,0,0,1,1.19,3,4.15,4.15,0,0,1-.55,2.14,3.6,3.6,0,0,1-1.57,1.43,5.35,5.35,0,0,1-2.37.5,4.68,4.68,0,0,1-3.28-1.08,3.91,3.91,0,0,1-1.18-3,3.81,3.81,0,0,1,1.21-3A4.66,4.66,0,0,1,285.73,435Zm0,6.29q3,0,3-2.21t-3-2.19q-3,0-3,2.2a1.88,1.88,0,0,0,.77,1.68A3.89,3.89,0,0,0,285.73,441.31Z"
		  transform="translate(-277.91 -335.79)"/>
	<path class="cls-2"
		  d="M290.23,430a3,3,0,0,1-1.17,2.52,6.42,6.42,0,0,1-6.6,0,3,3,0,0,1-1.18-2.54,3,3,0,0,1,1.26-2.59v-0.09a11,11,0,0,1-1.47.13h-3.15v-1.84h12.16V427l-1.13.32v0.09A2.94,2.94,0,0,1,290.23,430Zm-1.48-.49a2,2,0,0,0-.64-1.65,3.35,3.35,0,0,0-2.07-.53h-0.26a3.87,3.87,0,0,0-2.32.53,2,2,0,0,0-.69,1.66,1.69,1.69,0,0,0,.79,1.49,4,4,0,0,0,2.24.52A3.92,3.92,0,0,0,288,431,1.71,1.71,0,0,0,288.74,429.5Z"
		  transform="translate(-277.91 -335.79)"/>
</svg>
