<svg id="Layer_1" data-name="Layer 1" xmlns="http://www.w3.org/2000/svg" viewBox="0 0 168.56 45.59">
	<defs>
		<style>.cls-1 {
			fill: #c9cac9;
		}

		.cls-2 {
			fill: #373737;
		}</style>
	</defs>
	<title>impact_arrow</title>
	<polygon class="cls-1" points="145.76 24.56 145.76 34.67 168.56 17.34 145.76 0 145.76 10.11 0 17.34 145.76 24.56"/>
	<path class="cls-2" d="M243.23,536.27V524.85h1.87v11.42h-1.87Z" transform="translate(-241.5 -494.52)"/>
	<path class="cls-2"
		  d="M255.2,536.27h-1.84v-5.33a2.42,2.42,0,0,0-.37-1.48,1.38,1.38,0,0,0-1.17-.49,1.79,1.79,0,0,0-1.56.69,4.05,4.05,0,0,0-.5,2.3v4.3h-1.84v-8.64h1.44l0.26,1.13h0.09a2.39,2.39,0,0,1,1-1,3.37,3.37,0,0,1,1.5-.34,2.63,2.63,0,0,1,2.64,1.36H255a2.63,2.63,0,0,1,1.08-1,3.43,3.43,0,0,1,1.59-.36,2.9,2.9,0,0,1,2.25.78,3.46,3.46,0,0,1,.71,2.38v5.63h-1.84v-5.33a2.4,2.4,0,0,0-.38-1.48,1.4,1.4,0,0,0-1.18-.49,1.82,1.82,0,0,0-1.57.67,3.44,3.44,0,0,0-.5,2.05v4.58Z"
		  transform="translate(-241.5 -494.52)"/>
	<path class="cls-2"
		  d="M267.6,536.42a3,3,0,0,1-2.55-1.18h-0.11q0.11,1.09.11,1.33v3.54h-1.84V527.63h1.48q0.06,0.24.26,1.16h0.09a2.88,2.88,0,0,1,2.58-1.31,3,3,0,0,1,2.52,1.17,6.43,6.43,0,0,1,0,6.59A3,3,0,0,1,267.6,536.42ZM267.16,529a1.91,1.91,0,0,0-1.6.64,3.32,3.32,0,0,0-.5,2v0.27a4,4,0,0,0,.5,2.29,1.86,1.86,0,0,0,1.63.71,1.66,1.66,0,0,0,1.47-.78,4,4,0,0,0,.52-2.23,3.9,3.9,0,0,0-.51-2.2A1.71,1.71,0,0,0,267.16,529Z"
		  transform="translate(-241.5 -494.52)"/>
	<path class="cls-2"
		  d="M278.59,536.27l-0.37-1.2h-0.06a3.54,3.54,0,0,1-1.26,1.07,4,4,0,0,1-1.62.29,2.75,2.75,0,0,1-2-.69,2.57,2.57,0,0,1-.71-1.95,2.28,2.28,0,0,1,1-2,5.72,5.72,0,0,1,3-.74l1.49,0v-0.46a1.75,1.75,0,0,0-.39-1.24,1.58,1.58,0,0,0-1.2-.41,4.16,4.16,0,0,0-1.27.2,9.61,9.61,0,0,0-1.17.46l-0.59-1.31a6.38,6.38,0,0,1,1.54-.56,7.06,7.06,0,0,1,1.58-.19,3.74,3.74,0,0,1,2.49.72,2.82,2.82,0,0,1,.84,2.26v5.82h-1.31ZM275.86,535a2.27,2.27,0,0,0,1.61-.56,2,2,0,0,0,.61-1.57v-0.75l-1.11,0a3.8,3.8,0,0,0-1.89.43,1.32,1.32,0,0,0-.59,1.18,1.15,1.15,0,0,0,.34.89A1.48,1.48,0,0,0,275.86,535Z"
		  transform="translate(-241.5 -494.52)"/>
	<path class="cls-2"
		  d="M286,536.42a3.78,3.78,0,0,1-3-1.14,5.8,5.8,0,0,1,0-6.64,4,4,0,0,1,3.08-1.17,5.77,5.77,0,0,1,2.46.51L288,529.46a5.57,5.57,0,0,0-1.92-.45q-2.24,0-2.24,3a3.57,3.57,0,0,0,.56,2.18,1.93,1.93,0,0,0,1.64.73,4.7,4.7,0,0,0,2.32-.61v1.6a3.63,3.63,0,0,1-1.05.41A6.32,6.32,0,0,1,286,536.42Z"
		  transform="translate(-241.5 -494.52)"/>
	<path class="cls-2"
		  d="M293.61,534.94a4.46,4.46,0,0,0,1.34-.21v1.38a3.67,3.67,0,0,1-.79.22,5.44,5.44,0,0,1-1,.09q-2.61,0-2.61-2.75V529h-1.18v-0.81l1.27-.67,0.63-1.83h1.13v1.92h2.46V529h-2.46v4.63a1.3,1.3,0,0,0,.33,1A1.21,1.21,0,0,0,293.61,534.94Z"
		  transform="translate(-241.5 -494.52)"/>
</svg>
